<?xml version="1.0" encoding="utf-8"?>
<!-- Generator: Adobe Illustrator 19.2.1, SVG Export Plug-In . SVG Version: 6.00 Build 0)  -->
<svg version="1.1" id="Capa_1" xmlns="http://www.w3.org/2000/svg" xmlns:xlink="http://www.w3.org/1999/xlink" x="0px" y="0px"
	 viewBox="0 0 306.1 306.1" style="enable-background:new 0 0 306.1 306.1;" xml:space="preserve">
<style type="text/css">
	.st0{fill:#bfdef0;}
</style>
<g>
	<g>
		<path class="st0" d="M153.1,173.3L135.5,158l-50.1,43c1.8,1.7,4.3,2.7,7,2.7h121.3c2.7,0,5.2-1.1,7-2.7l-50.1-43L153.1,173.3z"/>
		<path class="st0" d="M220.7,105.2c-1.8-1.7-4.3-2.7-7-2.7H92.4c-2.7,0-5.2,1.1-7,2.8l67.6,58L220.7,105.2z"/>
		<polygon class="st0" points="82.2,111.3 82.2,195.4 131.1,153.9 		"/>
		<polygon class="st0" points="175,153.9 223.9,195.4 223.9,111.3 		"/>
	</g>
</g>
<g>
	<path class="st0" d="M153.6,303.5C71,303.5,3.8,236.3,3.8,153.7S71,4,153.6,4s149.7,67.2,149.7,149.7S236.1,303.5,153.6,303.5z
		 M153.6,20C79.8,20,19.8,80,19.8,153.7s60,133.7,133.7,133.7s133.7-60,133.7-133.7S227.3,20,153.6,20z"/>
</g>
</svg>
