<?xml version="1.0" encoding="utf-8"?>
<!-- Generator: Adobe Illustrator 19.2.1, SVG Export Plug-In . SVG Version: 6.00 Build 0)  -->
<svg version="1.1" id="Слой_1" xmlns="http://www.w3.org/2000/svg" xmlns:xlink="http://www.w3.org/1999/xlink" x="0px" y="0px"
	 viewBox="0 0 105 101" style="enable-background:new 0 0 105 101;" xml:space="preserve">
<g>
	<path fill="#395b6b" d="M11.8,60.2c0-0.3,0.1-0.6,0-0.9c0-0.2,0.1-0.3,0.3-0.3c1.3,0,2.7,0,4-0.1c0.2,0,0.2-0.1,0.2-0.2c0-0.5,0-1,0-1.5
		c0-4.5,0-9.1,0-13.6c0-0.1,0-0.2,0-0.4c-1.5,0-3-0.1-4.5-0.1c0-2.5,0-5,0-7.5c6.6-0.1,13.1,0,19.7,0c0.1,2.5,0.1,5,0,7.5
		c-0.2,0-0.4,0-0.6,0c-1.2,0-2.4,0-3.6,0c-0.3,0-0.3,0-0.3,0.3c0,0,0,0,0,0c0,2.5,0,5.1,0,7.6c0,2.5,0,4.9,0,7.4c0,0.1,0,0.2,0,0.3
		c1.5,0,3,0.1,4.6,0.1c0,2.4,0,4.8,0,7.3c-6.6,0-13.2,0-19.8,0c0-0.4-0.1-0.8-0.1-1.2C11.8,63.4,11.8,61.8,11.8,60.2z"/>
	<path fill="#395b6b" d="M54.3,16.4c0.3,0,0.6,0.1,1,0.1c8.5,0.6,15.8,3.7,22.1,9.4c2,1.8,3.7,3.8,5.2,6.1c0,0.1,0.1,0.1,0.1,0.2c0,0,0,0,0,0.1
		c-0.3,0.1-0.6,0.1-0.9,0.1c-0.4,0-0.6-0.2-0.9-0.5c-1.9-2.6-4.1-4.8-6.6-6.8c-0.1-0.1-0.2-0.1-0.4,0c-0.6,0.3-1.2,0.6-1.7,1
		c-0.5,0.3-1,0.6-1.4,0.8c-0.3,0.2-0.3,0.2-0.1,0.5c1.3,1.4,2.4,2.8,3.4,4.4c0.1,0.2,0.2,0.4,0.4,0.7c-0.5,0-0.9,0-1.3,0
		c-0.1,0-0.1-0.1-0.2-0.2c-1-1.4-2-2.8-3.2-4.1c-0.1-0.2-0.3-0.3-0.4-0.5c-0.1-0.1-0.2-0.1-0.3-0.1c-1.4,0.5-2.8,1.1-4.1,1.6
		c-0.5,0.2-1,0.3-1.5,0.4c-0.2,0.1-0.2,0.1-0.1,0.3c0.4,0.8,0.7,1.6,1.1,2.4c-0.2,0-0.5,0.1-0.7,0.1c-0.6,0-0.6,0-0.9-0.5
		c-0.3-0.5-0.6-1-0.8-1.6c-0.1-0.2-0.2-0.2-0.4-0.2c-0.9,0.2-1.8,0.4-2.6,0.5c-1.4,0.2-2.9,0.3-4.3,0.5c-0.2,0-0.4,0-0.5,0
		c-0.2,0-0.3,0.1-0.3,0.3c0,0.3,0,0.5,0,0.8c0,0.2-0.1,0.3-0.3,0.3c-0.3,0-0.7,0-1,0c0-0.2,0-0.4,0-0.6c0-0.1,0-0.2,0-0.3
		c0-0.4-0.1-0.5-0.5-0.5c-2.5-0.1-4.9-0.4-7.3-0.8c-0.5-0.1-0.5-0.1-0.8,0.4c-0.3,0.6-0.5,1.1-0.8,1.7c0,0.1-0.2,0.2-0.2,0.2
		c-0.4,0-0.7,0-1.1,0c0.1-0.3,0.2-0.5,0.3-0.7c0.2-0.5,0.5-1.1,0.7-1.6c0.1-0.3,0.1-0.4-0.2-0.4c-0.9-0.3-1.9-0.6-2.8-0.9
		c-0.8-0.3-1.7-0.6-2.5-0.9c-0.2-0.1-0.3,0-0.5,0.1c-1.2,1.3-2.3,2.7-3.3,4.2c-0.2,0.3-0.4,0.4-0.7,0.4c-0.3,0-0.6,0-1,0
		c1.1-2,2.5-3.6,3.9-5.3c-0.1,0-0.1-0.1-0.2-0.1c-1.1-0.6-2.2-1.3-3.3-1.9c-0.1,0-0.2,0-0.3,0c-0.7,0.5-1.4,1-2,1.6
		c-1.8,1.6-3.4,3.4-4.8,5.4c-0.2,0.2-0.3,0.3-0.6,0.3c-0.3,0-0.7,0-1,0c0-0.1,0.1-0.1,0.1-0.2c3.3-5,7.6-8.9,13-11.6
		c3.3-1.7,6.8-2.9,10.4-3.5c1.5-0.3,3-0.4,4.6-0.5c0.4,0,0.8,0,1.2,0c0,0,0.1,0,0.1,0C53.3,16.4,53.8,16.4,54.3,16.4z M52.3,29.6
		c0-0.2,0-0.4,0-0.5c0-1.5,0-3.1,0-4.6c0-0.7,0-1.4-0.1-2c0-0.1,0-0.2-0.2-0.3c-0.8-0.1-1.6-0.2-2.5-0.3c-0.2,0-0.3,0-0.4,0.2
		c-1.7,2-3.1,4.1-4.3,6.4c-0.1,0.1-0.1,0.2-0.2,0.4C47.3,29.3,49.8,29.6,52.3,29.6z M61.1,28.7c-0.1-0.2-0.2-0.3-0.3-0.5
		c-1.2-2.3-2.7-4.3-4.3-6.3c0-0.1-0.2-0.1-0.2-0.1c-0.5,0.1-1,0.1-1.5,0.2c-0.4,0.1-0.7,0.1-1.1,0.2c0,2.5,0,4.9,0,7.4
		C56.3,29.6,58.7,29.3,61.1,28.7z M68.2,26.4c-0.1-0.1-0.1-0.1-0.2-0.2c-1-1-2.2-2-3.4-2.9c-1.4-1-2.8-2-4.4-2.7
		c-0.1,0-0.2-0.1-0.3-0.1c-0.6,0.2-1.1,0.5-1.6,0.7c-0.1,0-0.2,0.1-0.3,0.2c0,0.1,0.1,0.1,0.1,0.1c1.6,2.1,3,4.3,4.4,6.6
		c0.1,0.2,0.2,0.2,0.4,0.2c1.8-0.4,3.4-1.1,5.1-1.8C68,26.5,68.1,26.5,68.2,26.4z M48,21.4c-0.6-0.2-1.2-0.5-1.8-0.7
		c-0.2-0.1-0.3-0.1-0.5,0c-2.4,1.3-4.6,2.9-6.7,4.7c-0.3,0.3-0.6,0.6-0.9,0.9c-0.2,0.2-0.2,0.3,0.1,0.4c0.6,0.2,1.1,0.5,1.7,0.6
		c1.1,0.4,2.2,0.7,3.3,1c0.2,0.1,0.3,0,0.4-0.2c0.1-0.3,0.3-0.5,0.4-0.7c1.1-1.9,2.3-3.8,3.7-5.5C47.7,21.8,47.8,21.6,48,21.4z
		 M45.5,18.5C45.5,18.5,45.4,18.6,45.5,18.5c0.1,0.2,0.2,0.3,0.3,0.3c0.1,0.1,0.3,0.2,0.4,0.2c0.7,0.3,1.4,0.8,2.1,1
		c2.2,0.8,4.6,1,6.9,0.6c1.9-0.3,3.6-0.9,5.1-2c0.1-0.1,0.1-0.1,0.3-0.2C55.5,17.3,50.5,17.4,45.5,18.5z M44.5,19.7
		C44.5,19.7,44.5,19.7,44.5,19.7c-0.3-0.2-0.5-0.4-0.7-0.5c-0.2-0.2-0.4-0.2-0.6-0.1c-0.1,0.1-0.3,0.1-0.4,0.1c-0.1-0.1-0.2,0-0.3,0
		c-0.1,0.1-0.3,0.2-0.4,0.2c-3.1,1-6.1,2.5-8.8,4.4c-0.1,0.1-0.2,0.1-0.3,0.2c0,0,0,0.1,0.1,0.1c1,0.7,2.1,1.3,3.2,1.8
		c0.1,0,0.2,0,0.3-0.1c1.9-1.8,3.9-3.4,6-4.8C43.3,20.5,43.9,20.1,44.5,19.7z M72.9,23.9C72.8,23.9,72.8,23.9,72.9,23.9
		c-3.2-2.3-6.7-3.9-10.4-4.9c-0.1,0-0.1,0-0.2,0c-0.3,0.2-0.7,0.3-0.8,0.7c0,0,0,0,0,0c0.1,0,0.2,0.1,0.2,0.1
		c2.8,1.6,5.3,3.5,7.6,5.8c0.2,0.2,0.3,0.2,0.5,0.1c0.9-0.5,1.9-1,2.8-1.6C72.7,24.1,72.8,24,72.9,23.9z"/>
	<path fill="#395b6b" d="M80,35.2c3.4,0.1,6.6,0.7,9.6,2.3c2.3,1.1,4.1,2.8,5.3,5c0.7,1.2,1,2.6,1.3,3.9c0.4,1.7,0.5,3.4,0.5,5.2
		c-0.1,2.8-0.6,5.5-1.8,8c-1,2-2.5,3.5-4.4,4.7c-1.7,1.1-3.5,1.7-5.5,2.1c-2.3,0.5-4.7,0.7-7.1,0.4c-3.8-0.4-7.3-1.6-10.3-4.2
		c-1.1-0.9-1.9-2-2.5-3.2c-0.9-1.8-1.4-3.7-1.6-5.7c-0.3-2.9,0-5.8,0.7-8.6c0.9-3.4,3-6,6.2-7.7c2-1,4.1-1.7,6.3-2
		C77.8,35.4,78.9,35.3,80,35.2z M85.1,51.3c0-0.9,0-1.7,0-2.6c0-0.9-0.1-1.7-0.2-2.5c-0.2-1.3-0.9-2.2-2.1-2.7
		c-0.6-0.3-1.2-0.4-1.9-0.5c-1.3-0.1-2.5,0-3.7,0.5c-0.9,0.4-1.5,1.1-1.8,2.1c-0.3,1.2-0.5,2.3-0.5,3.5c0,1.5,0,3,0.1,4.4
		c0,1,0.1,1.9,0.4,2.8c0.3,1,0.9,1.8,1.9,2.3c1.1,0.4,2.2,0.6,3.4,0.5c0.7-0.1,1.4-0.2,2.1-0.5c1.2-0.6,1.8-1.6,1.9-2.9
		C85.2,54.3,85.2,52.8,85.1,51.3z"/>
	<path fill="#395b6b" d="M40.4,64.1c0,0.7-0.1,1.4-0.1,2.1c-2.3,0-4.5,0-6.7,0c-0.1-3.7-0.1-7.4,0-11.2c0.1,0,0.2,0,0.2,0c1.9,0,3.8,0,5.6,0
		c0.2,0,0.3,0,0.4,0.2c0,0.1,0.1,0.1,0.1,0.2c0.7,1.3,1.8,2.1,3,2.8c1.7,1,3.6,1.5,5.5,1.6c1.3,0,2.6-0.1,3.8-0.4
		c0.2-0.1,0.5-0.2,0.7-0.3c0.3-0.3,0.4-0.7,0.1-1c-0.2-0.3-0.5-0.5-0.9-0.6c-2.5-0.8-5-1.5-7.5-2.3c-1.5-0.5-3-0.9-4.4-1.4
		c-2-0.7-3.8-1.9-5.2-3.6c-1-1.2-1.5-2.5-1.7-4c-0.2-1.7-0.1-3.4,0.6-5.1c0.8-1.9,2.2-3.3,4-4.2c1.8-0.9,3.7-1.4,5.7-1.5
		c3.1-0.2,6.1,0.2,9,1.3c0.7,0.3,1.4,0.7,2.1,1.1c0.1,0,0.2,0.1,0.3,0.1c0.2-0.6,0.1-1.2,0.1-1.8c2.2,0,4.3,0,6.5,0
		c0,3.5,0.1,6.9,0.1,10.4c-0.3,0-0.5,0-0.6,0c-1.2,0-2.3,0-3.5,0c-0.7,0-1.4,0-2.1,0c-0.1,0-0.2-0.1-0.3-0.1
		c-1.1-1.7-2.7-2.7-4.6-3.4c-1.1-0.4-2.2-0.7-3.4-0.8c-0.9-0.1-1.8-0.1-2.8-0.1c-0.6,0-1.1,0.3-1.5,0.8c-0.1,0.2-0.2,0.4-0.1,0.6
		c0.1,0.4,0.3,0.7,0.7,0.9c0.9,0.5,1.9,0.7,2.9,1c3,0.9,6.1,1.7,9.1,2.6c3.2,1,5.6,3.1,6.8,6.3c1.2,3.1,0.5,6.1-1.5,8.7
		c-1.3,1.6-3,2.6-5,3.2c-2.1,0.6-4.2,0.8-6.3,0.7c-2.2-0.2-4.4-0.6-6.5-1.5c-0.6-0.3-1.2-0.6-1.9-0.9C40.8,64.3,40.6,64.2,40.4,64.1
		z"/>
	<path fill="#395b6b" d="M70.8,74.9c0.6,0.3,1.2,0.7,1.7,1c0.6,0.3,1.2,0.7,1.8,1c0.2,0.1,0.3,0.1,0.4-0.1c2.2-1.8,4.2-3.8,5.9-6.1
		c0.3-0.4,0.5-0.7,0.8-1.1c0.1-0.1,0.2-0.1,0.3-0.1c0.4,0,0.8,0,1.3,0c-3.1,4.6-6.9,8.3-11.7,11.1c-4.7,2.8-9.9,4.3-15.3,4.8
		c-15.1,1.1-27-7.1-32.6-15.9c0.4,0,0.8,0,1.2,0c0.2,0,0.2,0.1,0.3,0.2c1.9,2.7,4.1,5.1,6.8,7.1c0.2,0.1,0.3,0.1,0.5,0
		c1.1-0.6,2.2-1.3,3.3-1.9c0,0,0,0,0.1-0.1c-1.4-1.7-2.8-3.4-3.9-5.4c0.3,0,0.7-0.1,1-0.1c0.3,0,0.5,0.1,0.6,0.4
		c0.3,0.5,0.6,0.9,0.9,1.3c0.8,1,1.6,2,2.5,3c0.1,0.2,0.3,0.2,0.5,0.1c1.8-0.7,3.7-1.4,5.5-1.9c0.3-0.1,0.3-0.1,0.2-0.4
		c-0.3-0.7-0.6-1.4-0.9-2.1c0-0.1-0.1-0.1-0.1-0.3c0.3,0,0.5,0,0.7,0c0.5-0.1,0.7,0.2,0.9,0.6c0.2,0.6,0.6,1.1,0.8,1.6
		c0.1,0.1,0.1,0.1,0.2,0.1c2.5-0.5,5-0.8,7.5-0.9c0.4,0,0.5-0.1,0.5-0.5c0-0.3,0-0.6,0-0.9c0.4,0,0.7,0,1.1,0c0,0,0.1,0.1,0.1,0.1
		c0,0.2,0,0.3,0,0.5c0,0.1,0,0.3,0,0.4c0,0.2,0.1,0.2,0.2,0.3c1.2,0.1,2.5,0.2,3.7,0.3c1.4,0.2,2.8,0.4,4.1,0.7c0.2,0,0.2,0,0.3-0.1
		c0.3-0.7,0.7-1.4,1-2c0.1-0.1,0.1-0.2,0.3-0.2c0.3,0,0.7,0,1.1,0c-0.1,0.4-0.3,0.7-0.4,1.1c-0.2,0.4-0.4,0.9-0.6,1.3
		c-0.1,0.3-0.1,0.4,0.2,0.5c0.5,0.1,1,0.3,1.5,0.4c1.3,0.5,2.7,1,4,1.5c0.2,0.1,0.3,0,0.4-0.1c1.2-1.2,2.2-2.6,3.2-4
		c0.3-0.5,0.6-0.7,1.2-0.6c0.2,0,0.4,0,0.6,0C73.6,71.5,72.2,73.1,70.8,74.9z M53.9,72.2c-0.1,2.5-0.1,5,0,7.5
		c0.5,0.1,1,0.1,1.5,0.2c0.5,0.1,0.9,0.1,1.4,0.2c0.1,0,0.2-0.1,0.3-0.1c1.3-1.6,2.5-3.3,3.5-5.1c0.3-0.5,0.6-1,0.8-1.5
		c0.1-0.2,0.1-0.3-0.1-0.3c0,0-0.1,0-0.1,0c-1.5-0.3-3-0.6-4.5-0.7C55.8,72.3,54.9,72.2,53.9,72.2z M52.5,72.3c-0.5,0-1,0-1.5,0
		c-1.9,0.1-3.7,0.4-5.5,0.7c-0.2,0-0.3,0.1-0.5,0.2c0.1,0.1,0.1,0.2,0.1,0.2c1.2,2.3,2.6,4.4,4.2,6.4c0.2,0.3,0.4,0.4,0.7,0.3
		c0.7-0.1,1.5-0.2,2.2-0.3c0.2,0,0.2-0.1,0.2-0.3c0-2.1,0-4.2,0-6.3C52.5,72.8,52.5,72.5,52.5,72.3z M48.2,80.5
		c-0.1-0.2-0.2-0.3-0.3-0.5c-1.5-2.1-2.9-4.2-4.1-6.4c-0.1-0.2-0.2-0.2-0.4-0.1c-1.8,0.5-3.5,1-5.1,1.8c-0.2,0.1-0.3,0.1-0.1,0.3
		c0.8,0.7,1.5,1.4,2.3,2.1c1.7,1.4,3.6,2.6,5.6,3.6c0.1,0.1,0.2,0.1,0.4,0c0.3-0.2,0.6-0.3,1-0.4C47.6,80.8,47.9,80.7,48.2,80.5z
		 M58.3,80.5c0.6,0.3,1.2,0.5,1.7,0.8c0.1,0.1,0.3,0.1,0.4,0c2.4-1.3,4.6-2.8,6.6-4.6c0.5-0.4,0.9-0.9,1.3-1.3
		c-0.1-0.1-0.1-0.1-0.2-0.1c-1.6-0.8-3.4-1.4-5.1-1.8c-0.2,0-0.3,0-0.4,0.2c-1.2,2.3-2.6,4.4-4.2,6.5C58.5,80.3,58.4,80.4,58.3,80.5
		z M45.6,83.4c0.1,0,0.2,0.1,0.3,0.1c2.8,0.7,5.7,0.9,8.6,0.8c2.1-0.1,4.1-0.3,6.1-0.8c0.1,0,0.1-0.1,0.2-0.1
		c-0.1-0.1-0.1-0.1-0.2-0.2c-1-0.7-2-1.2-3.1-1.5c-2.1-0.6-4.3-0.8-6.5-0.5c-1.9,0.3-3.7,0.9-5.3,2C45.7,83.2,45.7,83.3,45.6,83.4z
		 M73.2,77.9C73.1,77.8,73.1,77.8,73.2,77.9c-1.1-0.8-2.2-1.4-3.3-1.8c-0.1-0.1-0.2,0-0.3,0.1c-2.3,2.3-4.9,4.3-7.7,5.9
		c-0.1,0-0.1,0.1-0.3,0.2c0.3,0.2,0.6,0.4,0.8,0.6c0.1,0,0.2,0.1,0.3,0.1c0.7-0.2,1.5-0.4,2.2-0.7c2.2-0.8,4.4-1.8,6.4-3.1
		C72,78.7,72.6,78.3,73.2,77.9z M44.7,82.3c-0.1-0.1-0.2-0.1-0.3-0.2c-2.7-1.7-5.3-3.6-7.6-5.9c-0.1-0.1-0.3-0.2-0.4-0.1
		c-1,0.6-2,1.1-3,1.7c-0.2,0.1-0.2,0.2,0,0.3c0.4,0.3,0.8,0.6,1.2,0.8c2.8,1.8,5.8,3.1,9,4c0.1,0,0.2,0,0.3,0
		C44.2,82.7,44.4,82.5,44.7,82.3z"/>
</g>
</svg>
