<?xml version="1.0" encoding="utf-8"?>
<!-- Generator: Adobe Illustrator 19.2.1, SVG Export Plug-In . SVG Version: 6.00 Build 0)  -->
<svg version="1.1" id="Layer_1" xmlns="http://www.w3.org/2000/svg" xmlns:xlink="http://www.w3.org/1999/xlink" x="0px" y="0px"
	 viewBox="0 0 306.1 306.1" style="enable-background:new 0 0 306.1 306.1;" xml:space="preserve">
<style type="text/css">
	.st0{fill:#bfdef0;}
</style>
<g>
	<g>
		<path class="st0" d="M154.1,69.2c-34,0-61.6,27.6-61.6,61.6c0,42.2,55.1,104,57.4,106.6c2.2,2.4,6.1,2.4,8.3,0
			c2.3-2.6,57.4-64.5,57.4-106.6C215.6,96.9,188,69.2,154.1,69.2z M154.1,153.1c-17.1,0-22.3-5.2-22.3-22.3s5.2-22.3,22.3-22.3
			s22.3,5.2,22.3,22.3C176.3,147.9,171.1,153.1,154.1,153.1z"/>
	</g>
</g>
<g>
	<path class="st0" d="M154.1,304C71.5,304,4.3,236.9,4.3,154.3S71.5,4.6,154.1,4.6s149.7,67.2,149.7,149.7S236.6,304,154.1,304z
		 M154.1,20.6c-73.7,0-133.7,60-133.7,133.7S80.4,288,154.1,288s133.7-60,133.7-133.7S227.8,20.6,154.1,20.6z"/>
</g>
</svg>
