<?xml version="1.0"?>
<svg xmlns="http://www.w3.org/2000/svg" height="512px" viewBox="0 -8 512.001 512" width="512px" class=""><g><path d="m455.292969 454.191406h-.199219c-4.171875 0-7.554688 3.382813-7.554688 7.554688 0 4.175781 3.382813 7.558594 7.554688 7.558594h.199219c4.175781 0 7.558593-3.382813 7.558593-7.558594 0-4.171875-3.382812-7.554688-7.558593-7.554688zm0 0" data-original="#000000" class="active-path" data-old_color="#000000" fill="#003F5D"/><path d="m419.007812 454.191406h-.226562c-4.175781 0-7.558594 3.382813-7.558594 7.554688 0 4.175781 3.382813 7.558594 7.558594 7.558594h.226562c4.171876 0 7.554688-3.382813 7.554688-7.558594 0-4.171875-3.382812-7.554688-7.554688-7.554688zm0 0" data-original="#000000" class="active-path" data-old_color="#000000" fill="#003F5D"/><path d="m382.691406 454.386719h-.199218c-4.171876 0-7.554688 3.386719-7.554688 7.558593 0 4.175782 3.382812 7.558594 7.554688 7.558594h.199218c4.175782 0 7.558594-3.382812 7.558594-7.558594 0-4.171874-3.386719-7.558593-7.558594-7.558593zm0 0" data-original="#000000" class="active-path" data-old_color="#000000" fill="#003F5D"/><path d="m256.863281 77.929688c-.011719 0-.019531 0-.03125 0-23.621093 0-43.816406 10.183593-52.707031 26.578124-1.988281 3.667969-.628906 8.253907 3.042969 10.246094 3.667969 1.992188 8.257812.628906 10.246093-3.042968 6.148438-11.339844 21.621094-18.667969 39.421876-18.667969h.019531c17.789062.007812 33.242187 7.332031 39.375 18.664062 1.371093 2.527344 3.96875 3.960938 6.65625 3.960938 1.214843 0 2.445312-.292969 3.589843-.910157 3.667969-1.988281 5.035157-6.574218 3.046876-10.246093-8.871094-16.386719-29.046876-26.574219-52.660157-26.582031zm0 0" data-original="#000000" class="active-path" data-old_color="#000000" fill="#003F5D"/><path d="m330.503906 87.425781c1.367188 2.523438 3.96875 3.957031 6.652344 3.957031 1.214844 0 2.449219-.296874 3.59375-.914062 3.671875-1.992188 5.03125-6.578125 3.042969-10.246094-14.511719-26.765625-47.835938-43.390625-86.972657-43.390625-39.132812 0-72.457031 16.628907-86.964843 43.390625-1.988281 3.667969-.628907 8.253906 3.042969 10.246094 3.667968 1.988281 8.253906.625 10.246093-3.042969 11.863281-21.882812 40.09375-35.476562 73.675781-35.476562 33.585938 0 61.820313 13.59375 73.683594 35.476562zm0 0" data-original="#000000" class="active-path" data-old_color="#000000" fill="#003F5D"/><path d="m136.582031 71.464844c3.667969 1.992187 8.253907.628906 10.246094-3.042969 17.828125-32.878906 59.980469-53.308594 110.011719-53.308594 50.027344 0 92.179687 20.425781 110.007812 53.308594 1.371094 2.527344 3.96875 3.957031 6.652344 3.957031 1.21875 0 2.449219-.292968 3.59375-.914062 3.671875-1.988282 5.03125-6.578125 3.042969-10.246094-20.476563-37.761719-67.71875-61.21875-123.296875-61.21875-55.582032 0-102.824219 23.457031-123.300782 61.21875-1.988281 3.667969-.628906 8.257812 3.042969 10.246094zm0 0" data-original="#000000" class="active-path" data-old_color="#000000" fill="#003F5D"/><path d="m489.535156 427.519531h-.902344v-259.078125c0-15.773437-12.828124-28.605468-28.597656-28.605468h-408.070312c-15.769532 0-28.597656 12.832031-28.597656 28.605468v259.078125h-.902344c-12.386719 0-22.464844 10.078125-22.464844 22.46875v23.519531c0 12.402344 10.078125 22.496094 22.464844 22.496094h467.070312c12.390625 0 22.464844-10.09375 22.464844-22.496094v-23.519531c0-12.390625-10.078125-22.46875-22.464844-22.46875zm-451.054687-259.078125c0-7.4375 6.046875-13.492187 13.484375-13.492187h408.070312c7.433594 0 13.484375 6.054687 13.484375 13.492187v259.078125h-435.039062zm271.207031 274.191406v7.949219c0 1.894531-1.597656 3.492188-3.488281 3.492188h-100.398438c-1.875 0-3.460937-1.597657-3.460937-3.492188v-7.949219zm187.199219 30.875c0 4.070313-3.296875 7.382813-7.351563 7.382813h-467.070312c-4.054688 0-7.351563-3.3125-7.351563-7.382813v-23.519531c0-4.054687 3.296875-7.355469 7.351563-7.355469h164.761718v7.949219c0 10.261719 8.332032 18.609375 18.574219 18.609375h100.398438c10.257812 0 18.601562-8.347656 18.601562-18.609375v-7.949219h164.734375c4.054688 0 7.351563 3.300782 7.351563 7.355469zm0 0" data-original="#000000" class="active-path" data-old_color="#000000" fill="#003F5D"/><path d="m453.679688 391.703125v-200.90625c0-7.175781-5.835938-13.011719-13.007813-13.011719h-168.03125c-4.175781 0-7.558594 3.382813-7.558594 7.554688 0 4.175781 3.382813 7.558594 7.558594 7.558594h165.925781v196.640624h-365.132812v-196.640624h163.910156c4.175781 0 7.558594-3.382813 7.558594-7.554688 0-4.175781-3.382813-7.558594-7.558594-7.558594h-166.015625c-7.171875 0-13.007813 5.835938-13.007813 13.011719v200.90625c0 7.140625 5.835938 12.953125 13.007813 12.953125h369.34375c7.171875 0 13.007813-5.8125 13.007813-12.953125zm0 0" data-original="#000000" class="active-path" data-old_color="#000000" fill="#003F5D"/><path d="m378.890625 316.046875c4.171875 0 7.554687-3.382813 7.554687-7.554687v-30.253907c5.238282-3.53125 7.488282-9.105469 7.304688-14.183593.246094-6.882813-3.964844-14.695313-14.097656-17.054688l-110.746094-25.859375c-9.78125-2.4375-15.03125-3.585937-20.828125-3.585937-5.792969 0-11.042969 1.148437-20.820313 3.585937l-110.742187 25.859375c-10.140625 2.359375-14.355469 10.167969-14.105469 17.054688-.246094 6.898437 3.964844 14.722656 14.097656 17.078124l26.511719 6.191407v46.703125c0 14.328125 11.234375 26.082031 25.585938 26.761718 3.875.175782 7.878906.234376 11.914062.234376 4.03125 0 8.097657-.058594 12.09375-.117188 3.976563-.054688 7.734375-.109375 11.4375-.109375h29.539063c4.171875 0 7.554687-3.382813 7.554687-7.558594 0-4.171875-3.382812-7.554687-7.554687-7.554687h-29.539063c-3.808593 0-7.796875.054687-11.65625.113281-7.773437.109375-15.808593.226563-23.089843-.105469-6.160157-.289062-11.171876-5.523437-11.171876-11.664062v-43.171875l69.089844 16.132812c9.320313 2.292969 14.886719 3.589844 20.855469 3.589844 5.972656 0 11.535156-1.296875 20.773437-3.570313l69.175782-16.152343v43.171875c0 6.425781-5.246094 11.65625-11.695313 11.65625h-58.085937c-4.171875 0-7.554688 3.382812-7.554688 7.554687 0 4.175781 3.382813 7.558594 7.554688 7.558594h58.085937c14.785157 0 26.808594-12.011719 26.808594-26.773437v-46.699219l18.191406-4.25v25.417969c0 4.171874 3.382813 7.554687 7.558594 7.554687zm-34.640625-42.167969c-.285156.050782-.566406.113282-.839844.195313l-78.085937 18.234375c-8.910157 2.195312-13.234375 3.15625-17.246094 3.15625-4.007813 0-8.335937-.960938-17.335937-3.175782l-78.003907-18.214843c-.269531-.082031-.546875-.144531-.828125-.195313l-31.976562-7.464844c-2.503906-.582031-2.445313-1.496093-2.417969-1.84375.023437-.34375.019531-.691406 0-1.039062-.023437-.304688-.085937-1.226562 2.425781-1.8125l110.800782-25.871094c.039062-.007812.074218-.019531.109374-.027344 8.589844-2.140624 13.09375-3.148437 17.226563-3.148437 4.136719 0 8.636719 1.007813 17.226563 3.148437.035156.007813.070312.019532.105468.027344l110.8125 25.875c2.503906.582032 2.441406 1.507813 2.421875 1.808594-.023437.347656-.027343.695312 0 1.039062.019531.320313.070313 1.128907-1.925781 1.710938-.035156.011719-.074219.019531-.109375.03125-.125.035156-.253906.070312-.394531.101562zm0 0" data-original="#000000" class="active-path" data-old_color="#000000" fill="#003F5D"/></g> </svg>
