<?xml version="1.0" encoding="utf-8"?>
<!-- Generator: Adobe Illustrator 19.2.1, SVG Export Plug-In . SVG Version: 6.00 Build 0)  -->
<svg version="1.1" id="Capa_1" xmlns="http://www.w3.org/2000/svg" xmlns:xlink="http://www.w3.org/1999/xlink" x="0px" y="0px"
	 viewBox="0 0 306.1 306.1" style="enable-background:new 0 0 306.1 306.1;" xml:space="preserve">
<style type="text/css">
	.st0{fill:#bfdef0;}
</style>
<g>
	<path class="st0" d="M228.7,197.9c-0.2-0.4-0.4-0.8-0.6-1.1c-3-5.3-8.6-11.8-16.9-19.6L211,177l-0.1-0.1l-0.1-0.1h-0.1
		c-3.8-3.6-6.2-6-7.2-7.3c-1.8-2.4-2.2-4.8-1.2-7.2c0.7-1.8,3.4-5.7,8-11.6c2.4-3.1,4.3-5.6,5.8-7.5c10.2-13.6,14.6-22.3,13.3-26
		l-0.5-0.9c-0.4-0.5-1.3-1-2.7-1.5c-1.5-0.4-3.4-0.5-5.7-0.2l-25.5,0.2c-0.4-0.1-1-0.1-1.8,0c-0.8,0.2-1.2,0.3-1.2,0.3l-0.4,0.2
		l-0.4,0.3c-0.3,0.2-0.6,0.5-1,0.9c-0.4,0.4-0.6,1-0.9,1.5c-2.8,7.1-5.9,13.8-9.5,19.9c-2.2,3.7-4.2,6.8-6,9.5
		c-1.8,2.7-3.4,4.7-4.6,5.9c-1.2,1.3-2.4,2.3-3.4,3.1c-1,0.8-1.8,1.1-2.3,1c-0.5-0.1-1-0.2-1.5-0.4c-0.8-0.5-1.5-1.3-2-2.2
		c-0.5-0.9-0.8-2.1-1-3.5c-0.2-1.4-0.3-2.6-0.3-3.6c0-1,0-2.4,0-4.3c0.1-1.8,0.1-3.1,0.1-3.7c0-2.2,0-4.7,0.1-7.3
		c0.1-2.6,0.2-4.7,0.2-6.2c0.1-1.5,0.1-3.2,0.1-4.9c0-1.7-0.1-3.1-0.3-4c-0.2-1-0.5-1.9-0.9-2.8c-0.4-0.9-1-1.6-1.8-2.1
		c-0.8-0.5-1.8-0.9-3-1.2c-3.1-0.7-7.1-1.1-12-1.2c-11-0.1-18,0.6-21.2,2.1c-1.2,0.6-2.4,1.5-3.4,2.7c-1.1,1.3-1.2,2-0.4,2.1
		c3.5,0.5,6.1,1.8,7.5,3.8l0.5,1.1c0.4,0.8,0.8,2.1,1.2,4.1c0.4,1.9,0.7,4.1,0.8,6.5c0.3,4.3,0.3,8,0,11.1c-0.3,3.1-0.6,5.5-0.8,7.2
		s-0.7,3.1-1.2,4.2c-0.5,1.1-0.9,1.7-1.1,1.9c-0.2,0.2-0.3,0.4-0.4,0.4c-0.8,0.3-1.6,0.4-2.4,0.4c-0.8,0-1.8-0.4-3-1.2
		c-1.2-0.8-2.4-2-3.7-3.4c-1.3-1.4-2.7-3.5-4.3-6.1c-1.6-2.6-3.2-5.7-5-9.2l-1.4-2.6c-0.9-1.7-2.1-4.1-3.6-7.2
		c-1.5-3.2-2.9-6.2-4.1-9.2c-0.5-1.2-1.2-2.2-2.1-2.8l-0.4-0.3c-0.3-0.2-0.8-0.5-1.4-0.8c-0.6-0.3-1.3-0.5-2-0.6l-24.3,0.2
		c-2.5,0-4.2,0.6-5,1.7l-0.4,0.5c-0.2,0.3-0.3,0.8-0.3,1.4c0,0.6,0.2,1.4,0.5,2.4c3.5,8.3,7.4,16.4,11.6,24.1
		c4.2,7.7,7.8,14,10.8,18.7c3.1,4.7,6.2,9.2,9.4,13.4c3.2,4.2,5.3,6.9,6.3,8.1c1,1.2,1.8,2.1,2.4,2.7l2.2,2.1
		c1.4,1.4,3.5,3.1,6.2,5.1c2.7,2,5.8,3.9,9.1,5.8c3.3,1.9,7.2,3.5,11.6,4.7c4.4,1.2,8.7,1.7,12.9,1.5H153c2.1-0.2,3.6-0.8,4.7-1.9
		l0.4-0.4c0.2-0.4,0.5-0.9,0.7-1.6c0.2-0.7,0.3-1.6,0.3-2.4c-0.1-2.5,0.1-4.8,0.6-6.9c0.4-2,0.9-3.6,1.5-4.6c0.6-1,1.2-1.9,1.9-2.6
		c0.7-0.7,1.2-1.1,1.5-1.3c0.3-0.1,0.5-0.2,0.7-0.3c1.4-0.5,3.1,0,5,1.4c1.9,1.4,3.7,3.1,5.4,5.1c1.7,2,3.7,4.3,6.1,6.9
		c2.4,2.5,4.4,4.4,6.2,5.7l1.8,1.1c1.2,0.7,2.7,1.4,4.6,1.9c1.9,0.6,3.5,0.7,5,0.4l22.7-0.4c2.2,0,4-0.4,5.2-1.1
		c1.2-0.7,2-1.6,2.2-2.4c0.2-0.9,0.2-1.9,0-3C229.1,199.1,228.9,198.3,228.7,197.9z"/>
</g>
<g>
	<path class="st0" d="M153.6,303.5C71,303.5,3.8,236.3,3.8,153.7S71,4,153.6,4s149.7,67.2,149.7,149.7S236.1,303.5,153.6,303.5z
		 M153.6,20C79.8,20,19.8,80,19.8,153.7s60,133.7,133.7,133.7s133.7-60,133.7-133.7S227.3,20,153.6,20z"/>
</g>
</svg>
