<?xml version="1.0"?>
<svg xmlns="http://www.w3.org/2000/svg" viewBox="0 0 512 512" width="512" height="512"><g id="Solid"><path fill="#ccd4dc" d="M84.829,246.03A35.9,35.9,0,0,1,80,228v-8a36,36,0,0,1,72,0v8a35.9,35.9,0,0,1-4.829,18.03A63.758,63.758,0,0,1,168,261.634V168H64v93.634A63.758,63.758,0,0,1,84.829,246.03Z"/><path fill="#ccd4dc" d="M32,376a16.019,16.019,0,0,0,16,16H400a16.019,16.019,0,0,0,16-16V344H32Zm344-16h16v16H376Zm-32,0h16v16H344Zm-32,0h16v16H312Zm-32,0h16v16H280Zm-64,0h48v16H216Zm-64,0h48v16H152Zm-64,0h48v16H88Zm-32,0H72v16H56Z"/><path fill="#ccd4dc" d="M131.747,257.453a8,8,0,0,1-3.11-13.954A19.944,19.944,0,0,0,136,228v-8a20,20,0,0,0-40,0v8a19.944,19.944,0,0,0,7.363,15.5,8,8,0,0,1-3.11,13.954A47.9,47.9,0,0,0,64.664,296H167.336A47.9,47.9,0,0,0,131.747,257.453Z"/><path fill="#ccd4dc" d="M32,328H416V120H32Zm344-24H328V288h48Zm0-32H328V256h48Zm0-32H328V224h48Zm0-32H328V192h48ZM208,160H376v16H208Zm0,32h80v16H208Zm0,32h48v16H208Zm0,32h80v16H208Zm0,32h80v16H208ZM48,160a8,8,0,0,1,8-8H176a8,8,0,0,1,8,8V304a8,8,0,0,1-8,8H56a8,8,0,0,1-8-8Z"/><path fill="#ccd4dc" d="M479.527,343.37,432,171.083V360h34.862a13.137,13.137,0,0,0,12.665-16.63Z"/></g></svg>
