<svg 
 xmlns="http://www.w3.org/2000/svg"
 xmlns:xlink="http://www.w3.org/1999/xlink"
 width="13px" height="16px">
<path fill-rule="evenodd"  fill="#fff"
 d="M4.959,10.715 L4.959,9.426 L5.389,9.426 C5.976,9.426 6.558,9.415 7.134,9.394 C7.711,9.372 8.264,9.313 8.794,9.216 C9.324,9.120 9.814,8.971 10.265,8.771 C10.717,8.570 11.107,8.294 11.436,7.943 C11.766,7.593 12.025,7.150 12.215,6.617 C12.405,6.083 12.500,5.433 12.500,4.667 C12.500,3.729 12.271,2.902 11.812,2.186 C11.347,1.462 10.734,0.961 9.975,0.682 C9.223,0.395 8.002,0.252 6.312,0.252 L1.779,0.252 L1.779,6.912 L0.716,6.912 L0.716,9.426 L1.779,9.426 L1.779,10.715 L0.716,10.715 L0.716,13.089 L1.779,13.089 L1.779,16.000 L4.959,16.000 L4.959,13.089 L9.223,13.089 L9.223,10.715 L4.959,10.715 ZM4.959,2.916 L5.281,2.916 C5.933,2.916 6.450,2.921 6.833,2.932 C7.216,2.943 7.472,2.955 7.601,2.970 C8.139,3.049 8.543,3.251 8.815,3.577 C9.087,3.903 9.223,4.334 9.223,4.871 C9.223,5.344 9.118,5.738 8.907,6.053 C8.695,6.368 8.396,6.590 8.010,6.719 C7.630,6.848 6.678,6.912 5.152,6.912 L4.959,6.912 L4.959,2.916 Z"/>
</svg>