<?xml version="1.0" encoding="utf-8"?>
<!-- Generator: Adobe Illustrator 19.2.1, SVG Export Plug-In . SVG Version: 6.00 Build 0)  -->
<svg version="1.1" id="Layer_1" xmlns="http://www.w3.org/2000/svg" xmlns:xlink="http://www.w3.org/1999/xlink" x="0px" y="0px"
	 viewBox="0 0 280 200" style="enable-background:new 0 0 280 200;" xml:space="preserve">
<style type="text/css">
	.st0{fill:url(#XMLID_12_);}
	.st1{fill:url(#XMLID_14_);}
	.st2{fill:url(#XMLID_15_);}
	.st3{fill:url(#XMLID_17_);}
	.st4{fill:url(#XMLID_18_);}
	.st5{fill:url(#XMLID_19_);}
	.st6{fill:url(#XMLID_21_);}
	.st7{fill:url(#XMLID_22_);}
	.st8{fill:#E3F6FF;}
</style>
<linearGradient id="XMLID_12_" gradientUnits="userSpaceOnUse" x1="190.9875" y1="150.3772" x2="138.1134" y2="117.4063" gradientTransform="matrix(1 0 0 -1 0 201.2)">
	<stop  offset="0" style="stop-color:#B0E1FF"/>
	<stop  offset="1" style="stop-color:#24718D"/>
</linearGradient>
<polygon id="XMLID_10_" class="st0" points="137.9,69.5 192.3,69.5 151.1,56.2 "/>
<linearGradient id="XMLID_14_" gradientUnits="userSpaceOnUse" x1="189.4801" y1="135.6456" x2="140.8785" y2="124.2509" gradientTransform="matrix(1 0 0 -1 0 201.2)">
	<stop  offset="0" style="stop-color:#D5EFFF"/>
	<stop  offset="1" style="stop-color:#A2C9DC"/>
</linearGradient>
<polygon id="XMLID_9_" class="st1" points="137.9,69.5 192.3,69.5 151.1,82.7 "/>
<linearGradient id="XMLID_15_" gradientUnits="userSpaceOnUse" x1="148.0256" y1="84.9729" x2="135.3599" y2="131.4136" gradientTransform="matrix(1 0 0 -1 0 201.2)">
	<stop  offset="0" style="stop-color:#B0E1FF"/>
	<stop  offset="1" style="stop-color:#24718D"/>
</linearGradient>
<polygon id="XMLID_8_" class="st2" points="137.9,69.5 137.9,123.9 151.1,82.7 "/>
<linearGradient id="XMLID_17_" gradientUnits="userSpaceOnUse" x1="131.4163" y1="98.14" x2="145.6015" y2="118.6039" gradientTransform="matrix(1 0 0 -1 0 201.2)">
	<stop  offset="0" style="stop-color:#D5EFFF"/>
	<stop  offset="1" style="stop-color:#A2C9DC"/>
</linearGradient>
<polygon id="XMLID_7_" class="st3" points="137.9,69.5 137.9,123.9 124.6,82.7 "/>
<linearGradient id="XMLID_18_" gradientUnits="userSpaceOnUse" x1="83.4" y1="125.1" x2="137.831" y2="125.1" gradientTransform="matrix(1 0 0 -1 0 201.2)">
	<stop  offset="0" style="stop-color:#B0E1FF"/>
	<stop  offset="1" style="stop-color:#24718D"/>
</linearGradient>
<polygon id="XMLID_6_" class="st4" points="137.9,69.5 83.4,69.5 124.6,82.7 "/>
<linearGradient id="XMLID_19_" gradientUnits="userSpaceOnUse" x1="98.9476" y1="140.9994" x2="137.0848" y2="121.0007" gradientTransform="matrix(1 0 0 -1 0 201.2)">
	<stop  offset="0" style="stop-color:#D5EFFF"/>
	<stop  offset="1" style="stop-color:#A2C9DC"/>
</linearGradient>
<polygon id="XMLID_5_" class="st5" points="137.9,69.5 83.4,69.5 124.6,56.2 "/>
<linearGradient id="XMLID_21_" gradientUnits="userSpaceOnUse" x1="126.7552" y1="179.2743" x2="141.0292" y2="135.8492" gradientTransform="matrix(1 0 0 -1 0 201.2)">
	<stop  offset="0" style="stop-color:#B0E1FF"/>
	<stop  offset="1" style="stop-color:#24718D"/>
</linearGradient>
<polygon id="XMLID_4_" class="st6" points="137.9,69.5 137.9,15 124.6,56.2 "/>
<linearGradient id="XMLID_22_" gradientUnits="userSpaceOnUse" x1="140.0767" y1="161.1267" x2="121.0082" y2="142.0581" gradientTransform="matrix(1 0 0 -1 0 201.2)">
	<stop  offset="0" style="stop-color:#D5EFFF"/>
	<stop  offset="1" style="stop-color:#A2C9DC"/>
</linearGradient>
<polygon id="XMLID_3_" class="st7" points="137.9,69.5 137.9,15 151.1,56.2 "/>
<g id="XMLID_1_">
	<path id="XMLID_11_" class="st8" d="M10.8,162v-3.4c0-11.7,3.5-12.6,9.5-12.6c2.1,0,4.2,0.3,6.1,0.9c0.7,0.2,1.1,0.4,1.1,1.8
		c0,1.2-0.2,1.5-0.7,1.5c-0.6,0-2.7-0.8-5.7-0.8c-5.1,0-6.4,0.7-6.4,9.7v2.3c0,9.2,1.6,9.7,6.4,9.7c3.2,0,5.1-0.8,5.7-0.8
		c0.5,0,0.7,0.2,0.7,1.5c0,1.4-0.4,1.6-1.1,1.8c-1.8,0.5-4.1,0.9-6.2,0.9C14.4,174.3,10.8,173.6,10.8,162z"/>
	<path id="XMLID_13_" class="st8" d="M30.1,163.1c0-10.7,3.4-11.7,8.8-11.7c7.1,0,7.9,3.4,7.9,10.5c0,1.3-0.3,1.9-1.6,1.9H33.9
		c0,6.4,0.8,7.4,5.6,7.4c3.5,0,5.7-0.9,6.4-0.9c0.4,0,0.6,0.3,0.6,1.5s-0.2,1.4-1.1,1.8c-1.5,0.5-4.2,0.9-6.3,0.9
		C32.7,174.4,30.1,173,30.1,163.1z M33.9,161.2h9.3c0-4.6-0.1-6.7-4.4-6.7C35.4,154.5,34.1,155.2,33.9,161.2z"/>
	<path id="XMLID_16_" class="st8" d="M52,173.9c-1.3-0.1-1.5-0.5-1.5-1.4v-19.3c0-1,0.4-1.4,1.3-1.5c2.1-0.3,4.2-0.4,7.2-0.4
		c5.8,0,8.1,0.7,8.1,5.3c0,4.1-1.5,5.3-4.6,5.7c3.6,0.5,5.2,1.4,5.2,5.6c0,5.2-2.7,6.3-8.8,6.3C56,174.3,54.3,174.2,52,173.9z
		 M54.2,154.9v6.2h4.1c3.8,0,5-0.8,5-3.5s-1-3-4.7-3C57,154.7,55.4,154.8,54.2,154.9z M63.8,167.4c0-2.7-1.1-3.6-5.6-3.6h-4v6.9
		c1.2,0.1,2.8,0.2,4.7,0.2C63.1,171,63.8,170.4,63.8,167.4z"/>
	<path id="XMLID_20_" class="st8" d="M70.8,163.1c0-10.7,3.4-11.7,8.8-11.7c7.1,0,7.9,3.4,7.9,10.5c0,1.3-0.3,1.9-1.6,1.9H74.6
		c0,6.4,0.8,7.4,5.6,7.4c3.5,0,5.7-0.9,6.4-0.9c0.4,0,0.6,0.3,0.6,1.5s-0.2,1.4-1.1,1.8c-1.5,0.5-4.2,0.9-6.3,0.9
		C73.4,174.4,70.8,173,70.8,163.1z M74.6,161.2h9.3c0-4.6-0.1-6.7-4.4-6.7C76.1,154.5,74.8,155.2,74.6,161.2z"/>
	<path id="XMLID_23_" class="st8" d="M91.7,181.2v-21.3c0-4.3-1-6.5-1-7.3c0-0.5,0.2-0.9,1.7-0.9c1.3,0,1.6,0.1,1.8,1l0.6,2.4
		c1.1-2.5,3.5-3.9,7.3-3.9c6.3,0,7.6,2.5,7.6,11.4c0,9.8-2.6,11.6-8.4,11.6c-2.7,0-4.8-0.6-5.9-2.4v9.3c0,1-0.4,1.2-1.8,1.2
		C92.1,182.5,91.7,182.3,91.7,181.2z M106,162.6c0-6.8-0.7-8.1-4.6-8.1s-5.9,1.2-5.9,7.2v2.8c0,5,0.9,6.7,5.3,6.7
		C104.9,171.2,106,170,106,162.6z"/>
	<path id="XMLID_26_" class="st8" d="M126.6,160.8V153c0-0.9,0.4-1.2,1.9-1.2s1.8,0.2,1.8,1.2v19.7c0,1-0.4,1.2-1.8,1.2
		c-1.5,0-1.9-0.2-1.9-1.2v-8.6h-9.1v8.6c0,1-0.4,1.2-1.8,1.2c-1.5,0-1.8-0.2-1.8-1.2V153c0-0.9,0.4-1.2,1.8-1.2
		c1.5,0,1.8,0.2,1.8,1.2v7.8H126.6z"/>
	<path id="XMLID_28_" class="st8" d="M136.3,173.9c-1.3-0.1-1.5-0.5-1.5-1.4V153c0-1,0.4-1.2,1.8-1.2s1.8,0.1,1.8,1.2v7.6h4.9
		c6,0,8.3,0.9,8.3,6.4c0,6.2-2.7,7.3-8.8,7.3C140.3,174.3,138.6,174.2,136.3,173.9z M138.5,163.7v7.2c1.1,0.1,2.7,0.2,4.6,0.2
		c4.1,0,4.8-0.6,4.8-4c0-2.7-0.7-3.4-4.1-3.4H138.5z M155.8,172.7V153c0-1,0.4-1.2,1.8-1.2c1.4,0,1.8,0.1,1.8,1.2v19.7
		c0,1-0.4,1.2-1.8,1.2S155.8,173.8,155.8,172.7z"/>
	<path id="XMLID_32_" class="st8" d="M180.6,152c0.5,0.2,0.6,0.6,0.6,1.2v19.6c0,1-0.4,1.2-1.8,1.2c-1.5,0-1.9-0.2-1.9-1.2v-16h-0.3
		l-8,15.9c-0.5,1.1-1.1,1.3-2.8,1.3c-0.9,0-1.4,0-1.7-0.2c-0.5-0.2-0.6-0.6-0.6-1.1V153c0-0.9,0.4-1.2,1.8-1.2
		c1.5,0,1.8,0.2,1.8,1.2v15.9h0.3l8.2-16c0.5-0.9,0.9-1,2.7-1C179.8,151.8,180.3,151.9,180.6,152z M167.7,144.7c0-1,0.2-1.2,1.4-1.2
		s1.4,0.1,1.4,1c0,1.3,0.1,1.6,1.9,1.6c1.8,0,1.9-0.3,2-1.6c0-0.9,0.2-1,1.4-1s1.4,0.1,1.4,1.2c0,3-0.8,4.2-4.8,4.2
		C168.5,149,167.7,147.8,167.7,144.7z"/>
	<path id="XMLID_35_" class="st8" d="M193.6,172.7v-24.8c0-0.9,0.3-1.1,1.4-1.1h13.8c1.1,0,1.4,0.2,1.4,1.1v24.8
		c0,1-0.4,1.2-1.8,1.2c-1.5,0-1.9-0.2-1.9-1.2V150h-9.1v22.7c0,1-0.4,1.2-1.8,1.2S193.6,173.7,193.6,172.7z"/>
	<path id="XMLID_37_" class="st8" d="M214.9,151.8c1.4,0,1.8,0.1,2,0.9l5,18h0.4l5-18c0.2-0.8,0.6-0.9,2-0.9c1.7,0,2,0.3,2,0.9
		c0,0.3,0,0.9-0.5,2.3l-6.5,21c-1.5,4.8-2.4,6.6-6.4,6.6c-1.4,0-2.7-0.2-3.6-0.5c-0.7-0.2-1.1-0.5-1.1-1.6c0-1.2,0.2-1.5,0.8-1.5
		c0.5,0,1.5,0.3,3.6,0.3s2.6-0.5,3.2-2.8l0.7-2.7c-1.7,0-2.2-0.7-2.7-2.2l-5-16.1c-0.6-2.1-0.7-2.6-0.7-2.9
		C213,152.2,213.2,151.8,214.9,151.8z"/>
	<path id="XMLID_39_" class="st8" d="M238.4,172.7v-17.5h-5.3c-0.9,0-1.2-0.3-1.2-1.7s0.3-1.7,1.2-1.7h14.3c0.9,0,1.1,0.3,1.1,1.7
		s-0.3,1.7-1.1,1.7h-5.3v17.5c0,1-0.4,1.2-1.8,1.2C238.8,173.9,238.4,173.7,238.4,172.7z"/>
	<path id="XMLID_41_" class="st8" d="M252.5,173.9c-1.3-0.1-1.5-0.5-1.5-1.4V153c0-1,0.4-1.2,1.8-1.2c1.5,0,1.8,0.1,1.8,1.2v7.6h4.9
		c6,0,8.3,0.9,8.3,6.4c0,6.2-2.7,7.3-8.8,7.3C256.6,174.3,254.8,174.2,252.5,173.9z M254.7,163.7v7.2c1.1,0.1,2.7,0.2,4.6,0.2
		c4.1,0,4.8-0.6,4.8-4c0-2.7-0.7-3.4-4.1-3.4H254.7z"/>
</g>
</svg>
