<?xml version="1.0" encoding="utf-8"?>
<!-- Generator: Adobe Illustrator 19.2.1, SVG Export Plug-In . SVG Version: 6.00 Build 0)  -->
<svg version="1.1" id="Layer_1" xmlns="http://www.w3.org/2000/svg" xmlns:xlink="http://www.w3.org/1999/xlink" x="0px" y="0px"
	 viewBox="0 0 191.2 61" style="enable-background:new 0 0 191.2 61;" xml:space="preserve">
<style type="text/css">
	.st0{fill:url(#XMLID_12_);}
	.st1{fill:url(#XMLID_14_);}
	.st2{fill:url(#XMLID_15_);}
	.st3{fill:url(#XMLID_17_);}
	.st4{fill:url(#XMLID_18_);}
	.st5{fill:url(#XMLID_19_);}
	.st6{fill:url(#XMLID_21_);}
	.st7{fill:url(#XMLID_22_);}
	.st8{fill:url(#XMLID_24_);}
	.st9{fill:url(#XMLID_25_);}
	.st10{fill:url(#XMLID_27_);}
	.st11{fill:url(#XMLID_29_);}
	.st12{fill:url(#XMLID_30_);}
	.st13{fill:url(#XMLID_31_);}
	.st14{fill:url(#XMLID_33_);}
	.st15{fill:url(#XMLID_34_);}
	.st16{fill:url(#XMLID_36_);}
	.st17{fill:url(#XMLID_38_);}
	.st18{fill:url(#XMLID_40_);}
	.st19{fill:url(#XMLID_42_);}
</style>
<linearGradient id="XMLID_12_" gradientUnits="userSpaceOnUse" x1="40.8727" y1="594.9669" x2="23.2934" y2="605.9288" gradientTransform="matrix(1 0 0 1 0 -577.7219)">
	<stop  offset="0" style="stop-color:#B0E1FF"/>
	<stop  offset="1" style="stop-color:#24718D"/>
</linearGradient>
<polygon id="XMLID_10_" class="st0" points="23.2,23.5 41.3,23.5 27.6,19 "/>
<linearGradient id="XMLID_14_" gradientUnits="userSpaceOnUse" x1="40.3717" y1="599.8618" x2="24.213" y2="603.6502" gradientTransform="matrix(1 0 0 1 0 -577.7219)">
	<stop  offset="0" style="stop-color:#D5EFFF"/>
	<stop  offset="1" style="stop-color:#A2C9DC"/>
</linearGradient>
<polygon id="XMLID_9_" class="st1" points="23.2,23.5 41.3,23.5 27.6,27.8 "/>
<linearGradient id="XMLID_15_" gradientUnits="userSpaceOnUse" x1="26.5848" y1="616.7159" x2="22.3737" y2="601.2756" gradientTransform="matrix(1 0 0 1 0 -577.7219)">
	<stop  offset="0" style="stop-color:#B0E1FF"/>
	<stop  offset="1" style="stop-color:#24718D"/>
</linearGradient>
<polygon id="XMLID_8_" class="st2" points="23.2,23.5 23.2,41.5 27.6,27.8 "/>
<linearGradient id="XMLID_17_" gradientUnits="userSpaceOnUse" x1="21.0386" y1="612.3162" x2="25.7548" y2="605.5124" gradientTransform="matrix(1 0 0 1 0 -577.7219)">
	<stop  offset="0" style="stop-color:#D5EFFF"/>
	<stop  offset="1" style="stop-color:#A2C9DC"/>
</linearGradient>
<polygon id="XMLID_7_" class="st3" points="23.2,23.5 23.2,41.5 18.8,27.8 "/>
<linearGradient id="XMLID_18_" gradientUnits="userSpaceOnUse" x1="5.1" y1="603.3719" x2="23.2" y2="603.3719" gradientTransform="matrix(1 0 0 1 0 -577.7219)">
	<stop  offset="0" style="stop-color:#B0E1FF"/>
	<stop  offset="1" style="stop-color:#24718D"/>
</linearGradient>
<polygon id="XMLID_6_" class="st4" points="23.2,23.5 5.1,23.5 18.8,27.8 "/>
<linearGradient id="XMLID_19_" gradientUnits="userSpaceOnUse" x1="10.2709" y1="598.0914" x2="22.9505" y2="604.7405" gradientTransform="matrix(1 0 0 1 0 -577.7219)">
	<stop  offset="0" style="stop-color:#D5EFFF"/>
	<stop  offset="1" style="stop-color:#A2C9DC"/>
</linearGradient>
<polygon id="XMLID_5_" class="st5" points="23.2,23.5 5.1,23.5 18.8,19 "/>
<linearGradient id="XMLID_21_" gradientUnits="userSpaceOnUse" x1="19.5176" y1="585.3619" x2="24.2633" y2="599.7996" gradientTransform="matrix(1 0 0 1 0 -577.7219)">
	<stop  offset="0" style="stop-color:#B0E1FF"/>
	<stop  offset="1" style="stop-color:#24718D"/>
</linearGradient>
<polygon id="XMLID_4_" class="st6" points="23.2,23.5 23.2,5.3 18.8,19 "/>
<linearGradient id="XMLID_22_" gradientUnits="userSpaceOnUse" x1="23.9371" y1="591.3848" x2="17.5973" y2="597.7245" gradientTransform="matrix(1 0 0 1 0 -577.7219)">
	<stop  offset="0" style="stop-color:#D5EFFF"/>
	<stop  offset="1" style="stop-color:#A2C9DC"/>
</linearGradient>
<polygon id="XMLID_3_" class="st7" points="23.2,23.5 23.2,5.3 27.6,19 "/>
<g id="XMLID_1_">
	
		<linearGradient id="XMLID_24_" gradientUnits="userSpaceOnUse" x1="44.35" y1="633.4622" x2="44.35" y2="612.7424" gradientTransform="matrix(1 0 0 1 0 -577.7219)">
		<stop  offset="0.1512" style="stop-color:#6EB6CE"/>
		<stop  offset="1" style="stop-color:#24718D"/>
	</linearGradient>
	<path id="XMLID_11_" class="st8" d="M39.7,44.6v-1.9c0-6.5,2-7,5.3-7c1.2,0,2.3,0.2,3.4,0.5c0.4,0.1,0.6,0.2,0.6,1
		c0,0.7-0.1,0.8-0.4,0.8c-0.3,0-1.5-0.4-3.2-0.4c-2.8,0-3.6,0.4-3.6,5.4v1.3c0,5.1,0.9,5.4,3.6,5.4c1.8,0,2.8-0.4,3.2-0.4
		c0.3,0,0.4,0.1,0.4,0.8c0,0.8-0.2,0.9-0.6,1c-1,0.3-2.3,0.5-3.5,0.5C41.7,51.5,39.7,51.1,39.7,44.6z"/>
	
		<linearGradient id="XMLID_25_" gradientUnits="userSpaceOnUse" x1="55.05" y1="633.4622" x2="55.05" y2="612.7424" gradientTransform="matrix(1 0 0 1 0 -577.7219)">
		<stop  offset="0.1512" style="stop-color:#6EB6CE"/>
		<stop  offset="1" style="stop-color:#24718D"/>
	</linearGradient>
	<path id="XMLID_13_" class="st9" d="M50.4,45.3c0-6,1.9-6.5,4.9-6.5c4,0,4.4,1.9,4.4,5.9c0,0.7-0.2,1.1-0.9,1.1h-6.3
		c0,3.6,0.4,4.1,3.1,4.1c2,0,3.2-0.5,3.6-0.5c0.2,0,0.3,0.2,0.3,0.8s-0.1,0.8-0.6,1c-0.8,0.3-2.3,0.5-3.5,0.5
		C51.9,51.6,50.4,50.8,50.4,45.3z M52.6,44.2h5.2c0-2.6-0.1-3.7-2.5-3.7C53.4,40.5,52.7,40.8,52.6,44.2z"/>
	
		<linearGradient id="XMLID_27_" gradientUnits="userSpaceOnUse" x1="66.65" y1="633.4622" x2="66.65" y2="612.7424" gradientTransform="matrix(1 0 0 1 0 -577.7219)">
		<stop  offset="0.1512" style="stop-color:#6EB6CE"/>
		<stop  offset="1" style="stop-color:#24718D"/>
	</linearGradient>
	<path id="XMLID_16_" class="st10" d="M62.7,51.3c-0.7-0.1-0.8-0.3-0.8-0.8V39.7c0-0.6,0.2-0.8,0.7-0.8c1.2-0.2,2.3-0.2,4-0.2
		c3.2,0,4.5,0.4,4.5,3c0,2.3-0.8,3-2.6,3.2c2,0.3,2.9,0.8,2.9,3.1c0,2.9-1.5,3.5-4.9,3.5C64.9,51.5,63.9,51.5,62.7,51.3z M63.9,40.7
		v3.5h2.3c2.1,0,2.8-0.4,2.8-2s-0.6-1.7-2.6-1.7C65.5,40.6,64.6,40.6,63.9,40.7z M69.3,47.7c0-1.5-0.6-2-3.1-2H64v3.9
		c0.7,0.1,1.6,0.1,2.6,0.1C68.9,49.7,69.3,49.3,69.3,47.7z"/>
	
		<linearGradient id="XMLID_29_" gradientUnits="userSpaceOnUse" x1="77.85" y1="633.4622" x2="77.85" y2="612.7424" gradientTransform="matrix(1 0 0 1 0 -577.7219)">
		<stop  offset="0.1512" style="stop-color:#6EB6CE"/>
		<stop  offset="1" style="stop-color:#24718D"/>
	</linearGradient>
	<path id="XMLID_20_" class="st11" d="M73.2,45.3c0-6,1.9-6.5,4.9-6.5c4,0,4.4,1.9,4.4,5.9c0,0.7-0.2,1.1-0.9,1.1h-6.3
		c0,3.6,0.4,4.1,3.1,4.1c2,0,3.2-0.5,3.6-0.5c0.2,0,0.3,0.2,0.3,0.8s-0.1,0.8-0.6,1c-0.8,0.3-2.3,0.5-3.5,0.5
		C74.6,51.6,73.2,50.8,73.2,45.3z M75.3,44.2h5.2c0-2.6-0.1-3.7-2.5-3.7C76.1,40.5,75.4,40.8,75.3,44.2z"/>
	
		<linearGradient id="XMLID_30_" gradientUnits="userSpaceOnUse" x1="89.45" y1="633.4622" x2="89.45" y2="612.7424" gradientTransform="matrix(1 0 0 1 0 -577.7219)">
		<stop  offset="0.1512" style="stop-color:#6EB6CE"/>
		<stop  offset="1" style="stop-color:#24718D"/>
	</linearGradient>
	<path id="XMLID_23_" class="st12" d="M84.8,55.4V43.5c0-2.4-0.6-3.6-0.6-4.1c0-0.3,0.1-0.5,0.9-0.5c0.7,0,0.9,0.1,1,0.6l0.3,1.3
		c0.6-1.4,2-2.2,4.1-2.2c3.5,0,4.2,1.4,4.2,6.4c0,5.5-1.5,6.5-4.7,6.5c-1.5,0-2.7-0.3-3.3-1.3v5.2c0,0.6-0.2,0.7-1,0.7
		C85.1,56.1,84.8,56,84.8,55.4z M92.8,45c0-3.8-0.4-4.5-2.6-4.5s-3.3,0.7-3.3,4V46c0,2.8,0.5,3.7,3,3.7C92.2,49.8,92.8,49.1,92.8,45
		z"/>
	
		<linearGradient id="XMLID_31_" gradientUnits="userSpaceOnUse" x1="101.8" y1="633.4622" x2="101.8" y2="612.7424" gradientTransform="matrix(1 0 0 1 0 -577.7219)">
		<stop  offset="0.1512" style="stop-color:#6EB6CE"/>
		<stop  offset="1" style="stop-color:#24718D"/>
	</linearGradient>
	<path id="XMLID_26_" class="st13" d="M104.3,44v-4.4c0-0.5,0.2-0.7,1.1-0.7c0.8,0,1,0.1,1,0.7v11c0,0.6-0.2,0.7-1,0.7
		s-1.1-0.1-1.1-0.7v-4.8h-5.1v4.8c0,0.6-0.2,0.7-1,0.7s-1-0.1-1-0.7v-11c0-0.5,0.2-0.7,1-0.7s1,0.1,1,0.7V44H104.3z"/>
	
		<linearGradient id="XMLID_33_" gradientUnits="userSpaceOnUse" x1="115.75" y1="633.4622" x2="115.75" y2="612.7424" gradientTransform="matrix(1 0 0 1 0 -577.7219)">
		<stop  offset="0.1512" style="stop-color:#6EB6CE"/>
		<stop  offset="1" style="stop-color:#24718D"/>
	</linearGradient>
	<path id="XMLID_28_" class="st14" d="M109.7,51.3c-0.7-0.1-0.8-0.3-0.8-0.8V39.6c0-0.6,0.2-0.7,1-0.7s1,0.1,1,0.7v4.2h2.7
		c3.4,0,4.6,0.5,4.6,3.6c0,3.5-1.5,4.1-4.9,4.1C112,51.5,111,51.5,109.7,51.3z M111,45.6v4c0.6,0.1,1.5,0.1,2.6,0.1
		c2.3,0,2.7-0.3,2.7-2.2c0-1.5-0.4-1.9-2.3-1.9C114,45.6,111,45.6,111,45.6z M120.6,50.6v-11c0-0.6,0.2-0.7,1-0.7s1,0.1,1,0.7v11
		c0,0.6-0.2,0.7-1,0.7C120.8,51.3,120.6,51.2,120.6,50.6z"/>
	
		<linearGradient id="XMLID_34_" gradientUnits="userSpaceOnUse" x1="130" y1="633.4622" x2="130" y2="612.7424" gradientTransform="matrix(1 0 0 1 0 -577.7219)">
		<stop  offset="0.1512" style="stop-color:#6EB6CE"/>
		<stop  offset="1" style="stop-color:#24718D"/>
	</linearGradient>
	<path id="XMLID_32_" class="st15" d="M134.5,39.1c0.3,0.1,0.3,0.3,0.3,0.7v10.9c0,0.6-0.2,0.7-1,0.7s-1.1-0.1-1.1-0.7v-8.9h-0.2
		l-4.5,8.9c-0.3,0.6-0.6,0.7-1.6,0.7c-0.5,0-0.8,0-0.9-0.1c-0.3-0.1-0.3-0.3-0.3-0.6v-11c0-0.5,0.2-0.7,1-0.7s1,0.1,1,0.7v8.9h0.2
		l4.6-8.9c0.3-0.5,0.5-0.6,1.5-0.6C134,38.9,134.3,39,134.5,39.1z M127.3,35c0-0.6,0.1-0.7,0.8-0.7c0.7,0,0.8,0.1,0.8,0.6
		c0,0.7,0.1,0.9,1.1,0.9s1.1-0.2,1.1-0.9c0-0.5,0.1-0.6,0.8-0.6s0.8,0.1,0.8,0.7c0,1.7-0.4,2.3-2.7,2.3
		C127.7,37.4,127.3,36.7,127.3,35z"/>
	
		<linearGradient id="XMLID_36_" gradientUnits="userSpaceOnUse" x1="146.3494" y1="634.6173" x2="146.3494" y2="608.3834" gradientTransform="matrix(1 0 0 1 0 -577.7219)">
		<stop  offset="0.1512" style="stop-color:#6EB6CE"/>
		<stop  offset="1" style="stop-color:#24718D"/>
	</linearGradient>
	<path id="XMLID_35_" class="st16" d="M141.7,50.6l0-14.3c0-0.5,0.2-0.6,0.8-0.6h7.7c0.6,0,0.8,0.1,0.8,0.6l0,14.4
		c0,0.6-0.2,0.7-1,0.7s-1.1-0.1-1.1-0.7l0-13.2h-5.1l0,13.2c0,0.6-0.2,0.7-1,0.7C142.1,51.3,141.7,51.2,141.7,50.6z"/>
	
		<linearGradient id="XMLID_38_" gradientUnits="userSpaceOnUse" x1="157.6" y1="633.4622" x2="157.6" y2="612.7424" gradientTransform="matrix(1 0 0 1 0 -577.7219)">
		<stop  offset="0.1512" style="stop-color:#6EB6CE"/>
		<stop  offset="1" style="stop-color:#24718D"/>
	</linearGradient>
	<path id="XMLID_37_" class="st17" d="M153.6,38.9c0.8,0,1,0.1,1.1,0.5l2.8,10.1h0.2l2.8-10.1c0.1-0.4,0.3-0.5,1.1-0.5
		c0.9,0,1.1,0.2,1.1,0.5c0,0.2,0,0.5-0.3,1.3l-3.6,11.7c-0.8,2.7-1.3,3.7-3.6,3.7c-0.8,0-1.5-0.1-2-0.3c-0.4-0.1-0.6-0.3-0.6-0.9
		c0-0.7,0.1-0.8,0.4-0.8c0.3,0,0.8,0.2,2,0.2s1.5-0.3,1.8-1.6l0.4-1.5c-0.9,0-1.2-0.4-1.5-1.2l-2.8-9c-0.3-1.2-0.4-1.5-0.4-1.6
		C152.6,39.2,152.7,38.9,153.6,38.9z"/>
	
		<linearGradient id="XMLID_40_" gradientUnits="userSpaceOnUse" x1="167.65" y1="633.4622" x2="167.65" y2="612.7424" gradientTransform="matrix(1 0 0 1 0 -577.7219)">
		<stop  offset="0.1512" style="stop-color:#6EB6CE"/>
		<stop  offset="1" style="stop-color:#24718D"/>
	</linearGradient>
	<path id="XMLID_39_" class="st18" d="M166.7,50.6v-9.8h-3c-0.5,0-0.7-0.2-0.7-0.9s0.2-0.9,0.7-0.9h8c0.5,0,0.6,0.2,0.6,0.9
		s-0.2,0.9-0.6,0.9h-3v9.8c0,0.6-0.2,0.7-1,0.7C167,51.3,166.7,51.2,166.7,50.6z"/>
	
		<linearGradient id="XMLID_42_" gradientUnits="userSpaceOnUse" x1="178.45" y1="633.4622" x2="178.45" y2="612.7424" gradientTransform="matrix(1 0 0 1 0 -577.7219)">
		<stop  offset="0.1512" style="stop-color:#6EB6CE"/>
		<stop  offset="1" style="stop-color:#24718D"/>
	</linearGradient>
	<path id="XMLID_41_" class="st19" d="M174.6,51.3c-0.7-0.1-0.8-0.3-0.8-0.8V39.6c0-0.6,0.2-0.7,1-0.7s1,0.1,1,0.7v4.2h2.7
		c3.4,0,4.6,0.5,4.6,3.6c0,3.5-1.5,4.1-4.9,4.1C176.9,51.5,175.9,51.5,174.6,51.3z M175.8,45.6v4c0.6,0.1,1.5,0.1,2.6,0.1
		c2.3,0,2.7-0.3,2.7-2.2c0-1.5-0.4-1.9-2.3-1.9C178.8,45.6,175.8,45.6,175.8,45.6z"/>
</g>
</svg>
