<?xml version="1.0" encoding="utf-8"?>
<!-- Generator: Adobe Illustrator 19.0.0, SVG Export Plug-In . SVG Version: 6.00 Build 0)  -->
<svg version="1.1" id="Layer_1" xmlns="http://www.w3.org/2000/svg" xmlns:xlink="http://www.w3.org/1999/xlink" x="0px" y="0px"
	 viewBox="0 0 191.2 61" style="enable-background:new 0 0 191.2 61;" xml:space="preserve">
<style type="text/css">
	.st0{fill:url(#XMLID_104_);}
	.st1{fill:url(#XMLID_105_);}
	.st2{fill:url(#XMLID_106_);}
	.st3{fill:url(#XMLID_107_);}
	.st4{fill:url(#XMLID_108_);}
	.st5{fill:url(#XMLID_109_);}
	.st6{fill:url(#XMLID_110_);}
	.st7{fill:url(#XMLID_111_);}
	.st8,
	.st9,
	.st10,
	.st11,
	.st12,
	.st13,
	.st14,
	.st15,
	.st16,
	.st17,
	.st18,
	.st19{fill:#e3f6ff;}
</style>
<linearGradient id="XMLID_104_" gradientUnits="userSpaceOnUse" x1="40.8741" y1="-169.7691" x2="23.2948" y2="-180.7311" gradientTransform="matrix(1 0 0 -1 0 -152.5219)">
	<stop  offset="0" style="stop-color:#B0E1FF"/>
	<stop  offset="1" style="stop-color:#24718D"/>
</linearGradient>
<polygon id="XMLID_10_" class="st0" points="23.2,23.5 41.3,23.5 27.6,19 "/>
<linearGradient id="XMLID_105_" gradientUnits="userSpaceOnUse" x1="40.3729" y1="-174.667" x2="24.2142" y2="-178.4554" gradientTransform="matrix(1 0 0 -1 0 -152.5219)">
	<stop  offset="0" style="stop-color:#D5EFFF"/>
	<stop  offset="1" style="stop-color:#A2C9DC"/>
</linearGradient>
<polygon id="XMLID_9_" class="st1" points="23.2,23.5 41.3,23.5 27.6,27.8 "/>
<linearGradient id="XMLID_106_" gradientUnits="userSpaceOnUse" x1="26.5904" y1="-191.5144" x2="22.3793" y2="-176.0741" gradientTransform="matrix(1 0 0 -1 0 -152.5219)">
	<stop  offset="0" style="stop-color:#B0E1FF"/>
	<stop  offset="1" style="stop-color:#24718D"/>
</linearGradient>
<polygon id="XMLID_8_" class="st2" points="23.2,23.5 23.2,41.5 27.6,27.8 "/>
<linearGradient id="XMLID_107_" gradientUnits="userSpaceOnUse" x1="21.0682" y1="-187.1367" x2="25.7844" y2="-180.3329" gradientTransform="matrix(1 0 0 -1 0 -152.5219)">
	<stop  offset="0" style="stop-color:#D5EFFF"/>
	<stop  offset="1" style="stop-color:#A2C9DC"/>
</linearGradient>
<polygon id="XMLID_7_" class="st3" points="23.2,23.5 23.2,41.5 18.8,27.8 "/>
<linearGradient id="XMLID_108_" gradientUnits="userSpaceOnUse" x1="5.104" y1="-178.1732" x2="23.2009" y2="-178.1732" gradientTransform="matrix(1 0 0 -1 0 -152.5219)">
	<stop  offset="0" style="stop-color:#B0E1FF"/>
	<stop  offset="1" style="stop-color:#24718D"/>
</linearGradient>
<polygon id="XMLID_6_" class="st4" points="23.2,23.5 5.1,23.5 18.8,27.8 "/>
<linearGradient id="XMLID_109_" gradientUnits="userSpaceOnUse" x1="10.2732" y1="-172.887" x2="22.9528" y2="-179.5361" gradientTransform="matrix(1 0 0 -1 0 -152.5219)">
	<stop  offset="0" style="stop-color:#D5EFFF"/>
	<stop  offset="1" style="stop-color:#A2C9DC"/>
</linearGradient>
<polygon id="XMLID_5_" class="st5" points="23.2,23.5 5.1,23.5 18.8,19 "/>
<linearGradient id="XMLID_110_" gradientUnits="userSpaceOnUse" x1="19.5185" y1="-160.1616" x2="24.2642" y2="-174.5993" gradientTransform="matrix(1 0 0 -1 0 -152.5219)">
	<stop  offset="0" style="stop-color:#B0E1FF"/>
	<stop  offset="1" style="stop-color:#24718D"/>
</linearGradient>
<polygon id="XMLID_4_" class="st6" points="23.2,23.5 23.2,5.3 18.8,19 "/>
<linearGradient id="XMLID_111_" gradientUnits="userSpaceOnUse" x1="23.9476" y1="-166.1952" x2="17.6078" y2="-172.535" gradientTransform="matrix(1 0 0 -1 0 -152.5219)">
	<stop  offset="0" style="stop-color:#D5EFFF"/>
	<stop  offset="1" style="stop-color:#A2C9DC"/>
</linearGradient>
<polygon id="XMLID_3_" class="st7" points="23.2,23.5 23.2,5.3 27.6,19 "/>
<g id="XMLID_1_">
	
		<linearGradient id="XMLID_112_" gradientUnits="userSpaceOnUse" x1="44.3217" y1="-208.2622" x2="44.3217" y2="-187.5424" gradientTransform="matrix(1 0 0 -1 0 -152.5219)">
		<stop  offset="0.1512" style="stop-color:#6EB6CE"/>
		<stop  offset="1" style="stop-color:#24718D"/>
	</linearGradient>
	<path id="XMLID_11_" class="st8" d="M39.7,44.6v-1.9c0-6.5,2-7,5.3-7c1.2,0,2.3,0.2,3.4,0.5c0.4,0.1,0.6,0.2,0.6,1
		c0,0.7-0.1,0.8-0.4,0.8c-0.3,0-1.5-0.4-3.2-0.4c-2.8,0-3.6,0.4-3.6,5.4v1.3c0,5.1,0.9,5.4,3.6,5.4c1.8,0,2.8-0.4,3.2-0.4
		c0.3,0,0.4,0.1,0.4,0.8c0,0.8-0.2,0.9-0.6,1c-1,0.3-2.3,0.5-3.5,0.5C41.7,51.5,39.7,51.1,39.7,44.6z"/>
	
		<linearGradient id="XMLID_113_" gradientUnits="userSpaceOnUse" x1="55.0978" y1="-208.2622" x2="55.0978" y2="-187.5424" gradientTransform="matrix(1 0 0 -1 0 -152.5219)">
		<stop  offset="0.1512" style="stop-color:#6EB6CE"/>
		<stop  offset="1" style="stop-color:#24718D"/>
	</linearGradient>
	<path id="XMLID_13_" class="st9" d="M50.4,45.3c0-6,1.9-6.5,4.9-6.5c4,0,4.4,1.9,4.4,5.9c0,0.7-0.2,1.1-0.9,1.1h-6.3
		c0,3.6,0.4,4.1,3.1,4.1c2,0,3.2-0.5,3.6-0.5c0.2,0,0.3,0.2,0.3,0.8s-0.1,0.8-0.6,1c-0.8,0.3-2.3,0.5-3.5,0.5
		C51.9,51.6,50.4,50.8,50.4,45.3z M52.6,44.2h5.2c0-2.6-0.1-3.7-2.5-3.7C53.4,40.5,52.7,40.8,52.6,44.2z"/>
	
		<linearGradient id="XMLID_114_" gradientUnits="userSpaceOnUse" x1="66.6277" y1="-208.2622" x2="66.6277" y2="-187.5424" gradientTransform="matrix(1 0 0 -1 0 -152.5219)">
		<stop  offset="0.1512" style="stop-color:#6EB6CE"/>
		<stop  offset="1" style="stop-color:#24718D"/>
	</linearGradient>
	<path id="XMLID_16_" class="st10" d="M62.7,51.3c-0.7-0.1-0.8-0.3-0.8-0.8V39.7c0-0.6,0.2-0.8,0.7-0.8c1.2-0.2,2.3-0.2,4-0.2
		c3.2,0,4.5,0.4,4.5,3c0,2.3-0.8,3-2.6,3.2c2,0.3,2.9,0.8,2.9,3.1c0,2.9-1.5,3.5-4.9,3.5C64.9,51.5,63.9,51.5,62.7,51.3z M63.9,40.7
		v3.5h2.3c2.1,0,2.8-0.4,2.8-2s-0.6-1.7-2.6-1.7C65.5,40.6,64.6,40.6,63.9,40.7z M69.3,47.7c0-1.5-0.6-2-3.1-2h-2.2v3.9
		c0.7,0.1,1.6,0.1,2.6,0.1C68.9,49.7,69.3,49.3,69.3,47.7z"/>
	
		<linearGradient id="XMLID_115_" gradientUnits="userSpaceOnUse" x1="77.8225" y1="-208.2622" x2="77.8225" y2="-187.5424" gradientTransform="matrix(1 0 0 -1 0 -152.5219)">
		<stop  offset="0.1512" style="stop-color:#6EB6CE"/>
		<stop  offset="1" style="stop-color:#24718D"/>
	</linearGradient>
	<path id="XMLID_20_" class="st11" d="M73.2,45.3c0-6,1.9-6.5,4.9-6.5c4,0,4.4,1.9,4.4,5.9c0,0.7-0.2,1.1-0.9,1.1h-6.3
		c0,3.6,0.4,4.1,3.1,4.1c2,0,3.2-0.5,3.6-0.5c0.2,0,0.3,0.2,0.3,0.8s-0.1,0.8-0.6,1c-0.8,0.3-2.3,0.5-3.5,0.5
		C74.6,51.6,73.2,50.8,73.2,45.3z M75.3,44.2h5.2c0-2.6-0.1-3.7-2.5-3.7C76.1,40.5,75.4,40.8,75.3,44.2z"/>
	
		<linearGradient id="XMLID_116_" gradientUnits="userSpaceOnUse" x1="89.5757" y1="-208.2622" x2="89.5757" y2="-187.5424" gradientTransform="matrix(1 0 0 -1 0 -152.5219)">
		<stop  offset="0.1512" style="stop-color:#6EB6CE"/>
		<stop  offset="1" style="stop-color:#24718D"/>
	</linearGradient>
	<path id="XMLID_23_" class="st12" d="M84.8,55.4V43.5c0-2.4-0.6-3.6-0.6-4.1c0-0.3,0.1-0.5,0.9-0.5c0.7,0,0.9,0.1,1,0.6l0.3,1.3
		c0.6-1.4,2-2.2,4.1-2.2c3.5,0,4.2,1.4,4.2,6.4c0,5.5-1.5,6.5-4.7,6.5c-1.5,0-2.7-0.3-3.3-1.3v5.2c0,0.6-0.2,0.7-1,0.7
		C85.1,56.1,84.8,56,84.8,55.4z M92.8,45c0-3.8-0.4-4.5-2.6-4.5s-3.3,0.7-3.3,4V46c0,2.8,0.5,3.7,3,3.7C92.2,49.8,92.8,49.1,92.8,45
		z"/>
	
		<linearGradient id="XMLID_117_" gradientUnits="userSpaceOnUse" x1="101.8035" y1="-208.2622" x2="101.8035" y2="-187.5424" gradientTransform="matrix(1 0 0 -1 0 -152.5219)">
		<stop  offset="0.1512" style="stop-color:#6EB6CE"/>
		<stop  offset="1" style="stop-color:#24718D"/>
	</linearGradient>
	<path id="XMLID_26_" class="st13" d="M104.3,44v-4.4c0-0.5,0.2-0.7,1.1-0.7c0.8,0,1,0.1,1,0.7v11c0,0.6-0.2,0.7-1,0.7
		c-0.8,0-1.1-0.1-1.1-0.7v-4.8h-5.1v4.8c0,0.6-0.2,0.7-1,0.7c-0.8,0-1-0.1-1-0.7v-11c0-0.5,0.2-0.7,1-0.7c0.8,0,1,0.1,1,0.7V44
		H104.3z"/>
	
		<linearGradient id="XMLID_118_" gradientUnits="userSpaceOnUse" x1="115.7622" y1="-208.2622" x2="115.7622" y2="-187.5424" gradientTransform="matrix(1 0 0 -1 0 -152.5219)">
		<stop  offset="0.1512" style="stop-color:#6EB6CE"/>
		<stop  offset="1" style="stop-color:#24718D"/>
	</linearGradient>
	<path id="XMLID_28_" class="st14" d="M109.7,51.3c-0.7-0.1-0.8-0.3-0.8-0.8V39.6c0-0.6,0.2-0.7,1-0.7s1,0.1,1,0.7v4.2h2.7
		c3.4,0,4.6,0.5,4.6,3.6c0,3.5-1.5,4.1-4.9,4.1C112,51.5,111,51.5,109.7,51.3z M111,45.6v4c0.6,0.1,1.5,0.1,2.6,0.1
		c2.3,0,2.7-0.3,2.7-2.2c0-1.5-0.4-1.9-2.3-1.9H111z M120.6,50.6v-11c0-0.6,0.2-0.7,1-0.7c0.8,0,1,0.1,1,0.7v11c0,0.6-0.2,0.7-1,0.7
		C120.8,51.3,120.6,51.2,120.6,50.6z"/>
	
		<linearGradient id="XMLID_119_" gradientUnits="userSpaceOnUse" x1="130.0279" y1="-208.2622" x2="130.0279" y2="-187.5424" gradientTransform="matrix(1 0 0 -1 0 -152.5219)">
		<stop  offset="0.1512" style="stop-color:#6EB6CE"/>
		<stop  offset="1" style="stop-color:#24718D"/>
	</linearGradient>
	<path id="XMLID_32_" class="st15" d="M134.5,39.1c0.3,0.1,0.3,0.3,0.3,0.7v10.9c0,0.6-0.2,0.7-1,0.7c-0.8,0-1.1-0.1-1.1-0.7v-8.9
		h-0.2l-4.5,8.9c-0.3,0.6-0.6,0.7-1.6,0.7c-0.5,0-0.8,0-0.9-0.1c-0.3-0.1-0.3-0.3-0.3-0.6v-11c0-0.5,0.2-0.7,1-0.7
		c0.8,0,1,0.1,1,0.7v8.9h0.2l4.6-8.9c0.3-0.5,0.5-0.6,1.5-0.6C134,38.9,134.3,39,134.5,39.1z M127.3,35c0-0.6,0.1-0.7,0.8-0.7
		s0.8,0.1,0.8,0.6c0,0.7,0.1,0.9,1.1,0.9c1,0,1.1-0.2,1.1-0.9c0-0.5,0.1-0.6,0.8-0.6s0.8,0.1,0.8,0.7c0,1.7-0.4,2.3-2.7,2.3
		C127.7,37.4,127.3,36.7,127.3,35z"/>
	
		<linearGradient id="XMLID_120_" gradientUnits="userSpaceOnUse" x1="146.3596" y1="-208.2622" x2="146.3596" y2="-187.5424" gradientTransform="matrix(1 0 0 -1 0 -152.5219)">
		<stop  offset="0.1512" style="stop-color:#6EB6CE"/>
		<stop  offset="1" style="stop-color:#24718D"/>
	</linearGradient>
	<path id="XMLID_35_" class="st16" d="M141.7,50.6V39.6c0-0.5,0.2-0.6,0.8-0.6h7.7c0.6,0,0.8,0.1,0.8,0.6v11.1c0,0.6-0.2,0.7-1,0.7
		c-0.8,0-1.1-0.1-1.1-0.7v-9.9h-5.1v9.9c0,0.6-0.2,0.7-1,0.7C142.1,51.3,141.7,51.2,141.7,50.6z"/>
	
		<linearGradient id="XMLID_121_" gradientUnits="userSpaceOnUse" x1="157.6881" y1="-208.2622" x2="157.6881" y2="-187.5424" gradientTransform="matrix(1 0 0 -1 0 -152.5219)">
		<stop  offset="0.1512" style="stop-color:#6EB6CE"/>
		<stop  offset="1" style="stop-color:#24718D"/>
	</linearGradient>
	<path id="XMLID_37_" class="st17" d="M153.6,38.9c0.8,0,1,0.1,1.1,0.5l2.8,10.1h0.2l2.8-10.1c0.1-0.4,0.3-0.5,1.1-0.5
		c0.9,0,1.1,0.2,1.1,0.5c0,0.2,0,0.5-0.3,1.3l-3.6,11.7c-0.8,2.7-1.3,3.7-3.6,3.7c-0.8,0-1.5-0.1-2-0.3c-0.4-0.1-0.6-0.3-0.6-0.9
		c0-0.7,0.1-0.8,0.4-0.8c0.3,0,0.8,0.2,2,0.2s1.5-0.3,1.8-1.6l0.4-1.5c-0.9,0-1.2-0.4-1.5-1.2l-2.8-9c-0.3-1.2-0.4-1.5-0.4-1.6
		C152.6,39.2,152.7,38.9,153.6,38.9z"/>
	
		<linearGradient id="XMLID_122_" gradientUnits="userSpaceOnUse" x1="167.7442" y1="-208.2622" x2="167.7442" y2="-187.5424" gradientTransform="matrix(1 0 0 -1 0 -152.5219)">
		<stop  offset="0.1512" style="stop-color:#6EB6CE"/>
		<stop  offset="1" style="stop-color:#24718D"/>
	</linearGradient>
	<path id="XMLID_39_" class="st18" d="M166.7,50.6v-9.8h-3c-0.5,0-0.7-0.2-0.7-0.9s0.2-0.9,0.7-0.9h8c0.5,0,0.6,0.2,0.6,0.9
		s-0.2,0.9-0.6,0.9h-3v9.8c0,0.6-0.2,0.7-1,0.7C167,51.3,166.7,51.2,166.7,50.6z"/>
	
		<linearGradient id="XMLID_123_" gradientUnits="userSpaceOnUse" x1="178.4645" y1="-208.2622" x2="178.4645" y2="-187.5424" gradientTransform="matrix(1 0 0 -1 0 -152.5219)">
		<stop  offset="0.1512" style="stop-color:#6EB6CE"/>
		<stop  offset="1" style="stop-color:#24718D"/>
	</linearGradient>
	<path id="XMLID_41_" class="st19" d="M174.6,51.3c-0.7-0.1-0.8-0.3-0.8-0.8V39.6c0-0.6,0.2-0.7,1-0.7c0.8,0,1,0.1,1,0.7v4.2h2.7
		c3.4,0,4.6,0.5,4.6,3.6c0,3.5-1.5,4.1-4.9,4.1C176.9,51.5,175.9,51.5,174.6,51.3z M175.8,45.6v4c0.6,0.1,1.5,0.1,2.6,0.1
		c2.3,0,2.7-0.3,2.7-2.2c0-1.5-0.4-1.9-2.3-1.9H175.8z"/>
</g>
</svg>
